<svg xmlns="http://www.w3.org/2000/svg" width="0" height="0" style="position:absolute;width:0;height:0;overflow:hidden">
<defs>
  <symbol id="i-gift" viewBox="0 0 24 24" fill="none" stroke="currentColor" stroke-width="2.4" stroke-linecap="round" stroke-linejoin="round">
    <rect x="3" y="9" width="18" height="12" rx="1.2"/><path d="M3 13h18"/><path d="M12 9v12"/><path d="M12 9c-2-3-7-3-7-1s3 1 7 1 7 0 7-1-5-2-7 1z"/>
  </symbol>
  <symbol id="i-calendar" viewBox="0 0 24 24" fill="none" stroke="currentColor" stroke-width="2.4" stroke-linecap="round" stroke-linejoin="round">
    <rect x="3" y="5" width="18" height="16" rx="1.5"/><path d="M3 10h18"/><path d="M8 3v4M16 3v4"/>
  </symbol>
  <symbol id="i-pine" viewBox="0 0 24 24" fill="none" stroke="currentColor" stroke-width="2.4" stroke-linecap="round" stroke-linejoin="round">
    <path d="M12 2 L6 10 H9 L4 17 H8 L3 22 H21 L16 17 H20 L15 10 H18 Z"/><path d="M11 22v-3M13 22v-3"/>
  </symbol>
  <symbol id="i-bed" viewBox="0 0 24 24" fill="none" stroke="currentColor" stroke-width="2.4" stroke-linecap="round" stroke-linejoin="round">
    <path d="M3 18v-7h18v7"/><path d="M3 21v-3h18v3"/><path d="M7 11V8a2 2 0 0 1 2-2h4a2 2 0 0 1 2 2v3"/>
  </symbol>
  <symbol id="i-umbrella" viewBox="0 0 24 24" fill="none" stroke="currentColor" stroke-width="2.4" stroke-linecap="round" stroke-linejoin="round">
    <path d="M3 11a9 9 0 0 1 18 0Z"/><path d="M12 11v9"/><path d="M12 20a2 2 0 0 1-2-2"/>
  </symbol>
  <symbol id="i-lighthouse" viewBox="0 0 24 24" fill="none" stroke="currentColor" stroke-width="2.4" stroke-linecap="round" stroke-linejoin="round">
    <path d="M9 21h6"/><path d="M10 21l1-12h2l1 12"/><path d="M9 9h6"/><rect x="9.5" y="5.5" width="5" height="3.5" rx=".5"/><path d="M12 5.5V3"/><path d="M5 7l2 1M19 7l-2 1M5 11l2-.5M19 11l-2-.5"/>
  </symbol>
  <symbol id="i-anchor" viewBox="0 0 24 24" fill="none" stroke="currentColor" stroke-width="2.4" stroke-linecap="round" stroke-linejoin="round">
    <circle cx="12" cy="5" r="2"/><path d="M12 7v14"/><path d="M5 12h14"/><path d="M5 12c0 4 3 7 7 8 4-1 7-4 7-8"/>
  </symbol>
  <symbol id="i-logs" viewBox="0 0 24 24" fill="none" stroke="currentColor" stroke-width="2.4" stroke-linecap="round" stroke-linejoin="round">
    <ellipse cx="6" cy="8" rx="3" ry="3"/><ellipse cx="6" cy="8" rx="1" ry="1"/><path d="M6 8h12 M9 11l9 0 M18 5v6 M6 14v6"/><ellipse cx="14" cy="17" rx="3" ry="3"/><ellipse cx="14" cy="17" rx="1" ry="1"/><path d="M14 17h7 M21 14v6"/>
  </symbol>
  <symbol id="i-flame" viewBox="0 0 24 24" fill="none" stroke="currentColor" stroke-width="2.4" stroke-linecap="round" stroke-linejoin="round">
    <path d="M12 22c4 0 7-3 7-7 0-4-3-6-4-9-1 3-3 4-3 6 0-1-1-2-1-3-2 2-4 4-4 7 0 4 1 6 5 6Z"/>
  </symbol>
  <symbol id="i-coffee" viewBox="0 0 24 24" fill="none" stroke="currentColor" stroke-width="2.4" stroke-linecap="round" stroke-linejoin="round">
    <path d="M4 8h13v6a4 4 0 0 1-4 4H8a4 4 0 0 1-4-4V8Z"/><path d="M17 9h2a2 2 0 0 1 2 2v1a2 2 0 0 1-2 2h-2"/><path d="M8 4c-.5 1 .5 2 0 3M12 4c-.5 1 .5 2 0 3"/>
  </symbol>
  <symbol id="i-tree" viewBox="0 0 24 24" fill="none" stroke="currentColor" stroke-width="2.4" stroke-linecap="round" stroke-linejoin="round">
    <circle cx="12" cy="9" r="6"/><path d="M12 15v6"/><path d="M9 21h6"/>
  </symbol>
  <symbol id="i-boot" viewBox="0 0 24 24" fill="none" stroke="currentColor" stroke-width="2.4" stroke-linecap="round" stroke-linejoin="round">
    <path d="M7 3v10c0 0-3 1-3 4v3h17v-3l-2-2h-3l-2-2-1-3V3Z"/><path d="M5 17h15"/><path d="M9 7h2"/>
  </symbol>
  <symbol id="i-jacket" viewBox="0 0 24 24" fill="none" stroke="currentColor" stroke-width="2.4" stroke-linecap="round" stroke-linejoin="round">
    <path d="M6 4l-3 4 1 4 2-1v10h12V11l2 1 1-4-3-4"/><path d="M6 4l6 3 6-3"/><path d="M12 7v14"/>
  </symbol>
  <symbol id="i-camera" viewBox="0 0 24 24" fill="none" stroke="currentColor" stroke-width="2.4" stroke-linecap="round" stroke-linejoin="round">
    <rect x="3" y="7" width="18" height="13" rx="2"/><path d="M9 7l1.5-3h3L15 7"/><circle cx="12" cy="13" r="3.5"/>
  </symbol>
  <symbol id="i-book" viewBox="0 0 24 24" fill="none" stroke="currentColor" stroke-width="2.4" stroke-linecap="round" stroke-linejoin="round">
    <path d="M4 19V5a2 2 0 0 1 2-2h13v18H6a2 2 0 0 1 0-4h13"/>
  </symbol>
  <symbol id="i-sock" viewBox="0 0 24 24" fill="none" stroke="currentColor" stroke-width="2.4" stroke-linecap="round" stroke-linejoin="round">
    <path d="M9 3h6v9c0 0 0 2-2 4l-3 3a3 3 0 0 1-4-4l3-3c1-1 1-3 0-3"/><path d="M9 7h6"/>
  </symbol>
  <symbol id="i-sun" viewBox="0 0 24 24" fill="none" stroke="currentColor" stroke-width="2.4" stroke-linecap="round" stroke-linejoin="round">
    <circle cx="12" cy="12" r="4.5"/><path d="M12 2v2M12 20v2M2 12h2M20 12h2M5 5l1.5 1.5M17.5 17.5L19 19M5 19l1.5-1.5M17.5 6.5L19 5"/>
  </symbol>
  <symbol id="i-heart" viewBox="0 0 24 24" fill="currentColor">
    <path d="M12 21s-7-4.5-9.5-9C1 9 2 5 5.5 4c2.5-.5 5 1 6.5 3 1.5-2 4-3.5 6.5-3 3.5 1 4.5 5 3 8-2.5 4.5-9.5 9-9.5 9z"/>
  </symbol>
</defs>
</svg>
