<svg xmlns="http://www.w3.org/2000/svg" viewBox="0 0 32 32" width="32" height="32">
  <defs>
    <linearGradient id="cal-red" x1="0" y1="0" x2="0" y2="1">
      <stop offset="0%" stop-color="#E04B4B"/>
      <stop offset="100%" stop-color="#A01818"/>
    </linearGradient>
    <linearGradient id="cal-paper" x1="0" y1="0" x2="0" y2="1">
      <stop offset="0%" stop-color="#FFFFFF"/>
      <stop offset="100%" stop-color="#E8E6DA"/>
    </linearGradient>
  </defs>
  <rect x="3" y="6" width="26" height="22" rx="1.5" fill="url(#cal-paper)" stroke="#666" stroke-width=".8"/>
  <path d="M3 7.5 Q3 6 4.5 6 H27.5 Q29 6 29 7.5 V13 H3 Z" fill="url(#cal-red)" stroke="#601010" stroke-width=".6"/>
  <rect x="3" y="6.5" width="26" height="1" fill="#fff" opacity=".3"/>
  <rect x="9" y="3" width="2" height="5.5" rx=".6" fill="#666" stroke="#333" stroke-width=".4"/>
  <rect x="21" y="3" width="2" height="5.5" rx=".6" fill="#666" stroke="#333" stroke-width=".4"/>
  <g stroke="#B8B5A8" stroke-width=".5">
    <line x1="3" y1="18" x2="29" y2="18"/>
    <line x1="3" y1="23" x2="29" y2="23"/>
    <line x1="9.5" y1="13" x2="9.5" y2="28"/>
    <line x1="16" y1="13" x2="16" y2="28"/>
    <line x1="22.5" y1="13" x2="22.5" y2="28"/>
  </g>
  <text x="16" y="11.5" text-anchor="middle" font-family="Tahoma, sans-serif" font-size="6" font-weight="bold" fill="#fff">2026</text>
</svg>
